<?xml version="1.0" encoding="utf-8"?>
<!-- Generator: Adobe Illustrator 24.1.2, SVG Export Plug-In . SVG Version: 6.00 Build 0)  -->
<svg version="1.1" id="Layer_1" xmlns="http://www.w3.org/2000/svg" xmlns:xlink="http://www.w3.org/1999/xlink" x="0px" y="0px"
	 viewBox="0 0 195.95 82.68" style="enable-background:new 0 0 195.95 82.68;" xml:space="preserve">
<style type="text/css">
	.st0{fill:none;stroke:#000000;stroke-miterlimit:10;}
	.st1{stroke:#000000;stroke-miterlimit:10;}
	.st2{stroke:#FFFFFF;stroke-miterlimit:10;}
	.st3{fill:#FFFFFF;}
	.st4{fill:#FFFFFF;stroke:#FFFFFF;stroke-miterlimit:10;}
	.st5{fill:#FFFFFF;stroke:#000000;stroke-miterlimit:10;}
	.st6{stroke:#000000;stroke-width:0.25;stroke-miterlimit:10;}
	.st7{fill:none;stroke:#000000;stroke-width:4;stroke-miterlimit:10;}
</style>
<g>
	<rect x="0.5" y="69.62" class="st0" width="194.95" height="12.45"/>
	<path class="st1" d="M34.83,69.62H19.94c-7.37,0-13.34-5.97-13.34-13.34V13.84c0-7.37,5.97-13.34,13.34-13.34h14.89
		c7.37,0,13.34,5.97,13.34,13.34v42.45C48.17,63.65,42.2,69.62,34.83,69.62z"/>
	<circle class="st2" cx="15.24" cy="49.33" r="3.03"/>
	<circle class="st2" cx="27.39" cy="60.57" r="3.03"/>
	<circle class="st2" cx="15.24" cy="60.57" r="3.03"/>
	<circle class="st2" cx="39.76" cy="60.57" r="3.03"/>
	<circle class="st2" cx="39.76" cy="49.33" r="3.03"/>
	<circle class="st2" cx="39.76" cy="38.56" r="3.03"/>
	<circle class="st2" cx="15.24" cy="38.56" r="1.84"/>
	<path class="st3" d="M47.07,32.83H7.7v-20c0-6.26,5.08-11.34,11.34-11.34h16.69c6.26,0,11.34,5.08,11.34,11.34V32.83z"/>
	<path class="st2" d="M29.22,40.4h-3.67c-0.82,0-1.48-0.66-1.48-1.48l0,0c0-0.82,0.66-1.48,1.48-1.48h3.67
		c0.82,0,1.48,0.66,1.48,1.48l0,0C30.7,39.74,30.04,40.4,29.22,40.4z"/>
	<g>
		<path d="M14.69,11.21c-0.05,0.03-0.17,0.07-0.32,0.07c-0.34,0-0.56-0.23-0.56-0.57c0-0.35,0.24-0.6,0.6-0.6
			c0.12,0,0.23,0.03,0.28,0.06l-0.05,0.16c-0.05-0.03-0.13-0.05-0.24-0.05c-0.26,0-0.4,0.19-0.4,0.42c0,0.26,0.17,0.42,0.39,0.42
			c0.12,0,0.19-0.03,0.25-0.06L14.69,11.21z"/>
		<path d="M14.86,11.13c0-0.09,0.06-0.15,0.14-0.15s0.14,0.06,0.14,0.15c0,0.08-0.05,0.15-0.14,0.15
			C14.91,11.28,14.86,11.21,14.86,11.13z"/>
		<path d="M15.46,10.13l0.22,0.63c0.04,0.1,0.07,0.19,0.09,0.29h0.01c0.03-0.09,0.06-0.19,0.1-0.29l0.22-0.63h0.21l-0.44,1.12h-0.19
			l-0.43-1.12H15.46z"/>
	</g>
	<g>
		<path d="M14.69,16.61c-0.05,0.03-0.17,0.07-0.32,0.07c-0.34,0-0.56-0.23-0.56-0.57c0-0.35,0.24-0.6,0.6-0.6
			c0.12,0,0.23,0.03,0.28,0.06l-0.05,0.16c-0.05-0.03-0.13-0.05-0.24-0.05c-0.26,0-0.4,0.19-0.4,0.42c0,0.26,0.17,0.42,0.39,0.42
			c0.12,0,0.19-0.03,0.25-0.06L14.69,16.61z"/>
		<path d="M14.86,16.53c0-0.09,0.06-0.15,0.14-0.15s0.14,0.06,0.14,0.15c0,0.08-0.05,0.15-0.14,0.15
			C14.91,16.67,14.86,16.61,14.86,16.53z"/>
		<path d="M16.18,16.61c-0.05,0.03-0.17,0.07-0.32,0.07c-0.34,0-0.56-0.23-0.56-0.57c0-0.35,0.24-0.6,0.6-0.6
			c0.12,0,0.23,0.03,0.28,0.06l-0.05,0.16c-0.05-0.03-0.13-0.05-0.24-0.05c-0.26,0-0.4,0.19-0.4,0.42c0,0.26,0.17,0.42,0.39,0.42
			c0.12,0,0.19-0.03,0.25-0.06L16.18,16.61z"/>
	</g>
	<g>
		<path d="M14.58,21.83c0,0.42-0.29,0.6-0.56,0.6c-0.3,0-0.54-0.22-0.54-0.58c0-0.38,0.25-0.6,0.56-0.6
			C14.36,21.25,14.58,21.49,14.58,21.83z M13.69,21.84c0,0.25,0.14,0.43,0.34,0.43c0.2,0,0.34-0.18,0.34-0.44
			c0-0.19-0.1-0.43-0.34-0.43S13.69,21.63,13.69,21.84z"/>
		<path d="M15.64,22.36c-0.05,0.03-0.17,0.07-0.32,0.07c-0.34,0-0.56-0.23-0.56-0.57c0-0.35,0.24-0.6,0.6-0.6
			c0.12,0,0.23,0.03,0.28,0.06l-0.05,0.16c-0.05-0.03-0.13-0.05-0.24-0.05c-0.26,0-0.4,0.19-0.4,0.42c0,0.26,0.17,0.42,0.39,0.42
			c0.12,0,0.19-0.03,0.25-0.06L15.64,22.36z"/>
		<path d="M15.87,21.65c0-0.14,0-0.26-0.01-0.37h0.18l0.01,0.19h0c0.08-0.14,0.22-0.22,0.4-0.22c0.27,0,0.48,0.23,0.48,0.57
			c0,0.4-0.25,0.6-0.51,0.6c-0.15,0-0.28-0.06-0.35-0.18h0v0.61h-0.2V21.65z M16.07,21.94c0,0.03,0,0.06,0.01,0.08
			c0.04,0.14,0.16,0.24,0.31,0.24c0.22,0,0.34-0.18,0.34-0.43c0-0.22-0.12-0.42-0.33-0.42c-0.14,0-0.27,0.1-0.31,0.25
			c-0.01,0.03-0.01,0.06-0.01,0.08V21.94z"/>
	</g>
	<g>
		<path d="M14.58,27.08c0,0.42-0.29,0.6-0.56,0.6c-0.3,0-0.54-0.22-0.54-0.58c0-0.38,0.25-0.6,0.56-0.6
			C14.36,26.5,14.58,26.74,14.58,27.08z M13.69,27.09c0,0.25,0.14,0.43,0.34,0.43c0.2,0,0.34-0.18,0.34-0.44
			c0-0.19-0.1-0.43-0.34-0.43S13.69,26.88,13.69,27.09z"/>
		<path d="M15.77,27.34c0,0.12,0,0.22,0.01,0.31H15.6l-0.01-0.18h0c-0.05,0.09-0.17,0.21-0.37,0.21c-0.18,0-0.39-0.1-0.39-0.49
			v-0.66h0.2v0.62c0,0.21,0.07,0.36,0.25,0.36c0.14,0,0.23-0.1,0.27-0.19c0.01-0.03,0.02-0.07,0.02-0.1v-0.69h0.2V27.34z"/>
		<path d="M16.36,26.21v0.32h0.29v0.16h-0.29v0.61c0,0.14,0.04,0.22,0.15,0.22c0.05,0,0.09-0.01,0.12-0.01l0.01,0.15
			c-0.04,0.02-0.1,0.03-0.18,0.03c-0.09,0-0.17-0.03-0.22-0.09c-0.06-0.06-0.08-0.16-0.08-0.29v-0.61h-0.17v-0.16h0.17v-0.27
			L16.36,26.21z"/>
	</g>
	<g>
		<path d="M37.57,12.06l-0.82-2.5h0.35l0.39,1.23c0.11,0.34,0.2,0.64,0.27,0.93h0.01c0.07-0.29,0.17-0.6,0.29-0.93l0.42-1.23h0.34
			l-0.89,2.5H37.57z"/>
	</g>
	<g>
		<path d="M37.68,19.77l-0.26,0.79h-0.33l0.85-2.5h0.39l0.85,2.5h-0.35l-0.27-0.79H37.68z M38.5,19.52l-0.24-0.72
			c-0.06-0.16-0.09-0.31-0.13-0.46h-0.01c-0.04,0.15-0.08,0.3-0.13,0.45l-0.24,0.72H38.5z"/>
	</g>
	<g>
		<path d="M37.68,28.51l-0.63-2.5h0.34l0.3,1.26c0.07,0.31,0.14,0.62,0.19,0.86h0.01c0.04-0.25,0.12-0.55,0.2-0.87l0.33-1.26h0.34
			l0.3,1.27c0.07,0.3,0.14,0.59,0.17,0.86h0.01c0.05-0.27,0.12-0.55,0.2-0.86l0.33-1.26h0.33l-0.71,2.5h-0.34l-0.31-1.3
			c-0.08-0.32-0.13-0.56-0.16-0.82h-0.01c-0.04,0.25-0.1,0.49-0.19,0.82l-0.36,1.3H37.68z"/>
	</g>
	<path class="st0" d="M84.07,53.67c0,2.52-2.04,4.56-4.55,4.56c-0.17,0-0.33-0.01-0.49-0.03c0.6-0.46,0.99-1.19,0.99-2
		c0-1.4-1.13-2.53-2.52-2.53c-1.01,0-1.88,0.6-2.29,1.45c-0.15-0.46-0.24-0.95-0.24-1.45c0-2.51,2.03-4.55,4.55-4.55
		C82.03,49.12,84.07,51.16,84.07,53.67z"/>
	<path class="st4" d="M91.72,57.19c0,1.08-0.88,1.95-1.96,1.95c-1.07,0-1.95-0.87-1.95-1.95c0-1.07,0.88-1.95,1.95-1.95
		C90.84,55.24,91.72,56.12,91.72,57.19z"/>
	<path class="st4" d="M98.64,57.19c0,1.08-0.88,1.95-1.95,1.95c-1.08,0-1.95-0.87-1.95-1.95c0-1.07,0.87-1.95,1.95-1.95
		C97.76,55.24,98.64,56.12,98.64,57.19z"/>
	<path class="st0" d="M105.53,57.19c0,1.08-0.88,1.95-1.95,1.95c-1.08,0-1.96-0.87-1.96-1.95c0-1.07,0.88-1.95,1.96-1.95
		C104.65,55.24,105.53,56.12,105.53,57.19z"/>
	<path class="st0" d="M108.85,46.04v3.6c0,0.98-0.79,1.78-1.78,1.78H93.19c-0.98,0-1.78-0.8-1.78-1.78v-3.6
		c0-0.98,0.8-1.78,1.78-1.78h13.88C108.06,44.26,108.85,45.06,108.85,46.04z"/>
	<path class="st4" d="M112.34,57.19c0,1.08-0.88,1.95-1.96,1.95c-1.07,0-1.95-0.87-1.95-1.95c0-1.07,0.88-1.95,1.95-1.95
		C111.46,55.24,112.34,56.12,112.34,57.19z"/>
	<path class="st5" d="M115.98,31.42H79.54c-4.39,0-7.95,3.56-7.95,7.95v22.55c0,4.4,3.56,7.95,7.95,7.95h36.44
		c4.39,0,7.95-3.56,7.95-7.95V39.37C123.93,34.98,120.37,31.42,115.98,31.42z M121.71,60.81H73.43V41.17h48.28V60.81z"/>
	<path class="st6" d="M73.43,41.17v19.64h48.28V41.17H73.43z M79.52,58.23c-0.17,0-0.33-0.01-0.49-0.03c0.6-0.46,0.99-1.19,0.99-2
		c0-1.4-1.13-2.53-2.52-2.53c-1.01,0-1.88,0.6-2.29,1.45c-0.15-0.46-0.24-0.95-0.24-1.45c0-2.51,2.03-4.55,4.55-4.55
		c2.51,0,4.55,2.04,4.55,4.55C84.07,56.19,82.03,58.23,79.52,58.23z M89.76,59.14c-1.07,0-1.95-0.87-1.95-1.95
		c0-1.07,0.88-1.95,1.95-1.95c1.08,0,1.96,0.88,1.96,1.95C91.72,58.27,90.84,59.14,89.76,59.14z M96.69,59.14
		c-1.08,0-1.95-0.87-1.95-1.95c0-1.07,0.87-1.95,1.95-1.95c1.07,0,1.95,0.88,1.95,1.95C98.64,58.27,97.76,59.14,96.69,59.14z
		 M103.58,59.14c-1.08,0-1.96-0.87-1.96-1.95c0-1.07,0.88-1.95,1.96-1.95c1.07,0,1.95,0.88,1.95,1.95
		C105.53,58.27,104.65,59.14,103.58,59.14z M107.07,51.42H93.19c-0.98,0-1.78-0.8-1.78-1.78v-3.6c0-0.98,0.8-1.78,1.78-1.78h13.88
		c0.99,0,1.78,0.8,1.78,1.78v3.6C108.85,50.62,108.06,51.42,107.07,51.42z M110.38,59.14c-1.07,0-1.95-0.87-1.95-1.95
		c0-1.07,0.88-1.95,1.95-1.95c1.08,0,1.96,0.88,1.96,1.95C112.34,58.27,111.46,59.14,110.38,59.14z"/>
	<path class="st0" d="M84.07,53.67c0,2.52-2.04,4.56-4.55,4.56c-0.17,0-0.33-0.01-0.49-0.03c0.6-0.46,0.99-1.19,0.99-2
		c0-1.4-1.13-2.53-2.52-2.53c-1.01,0-1.88,0.6-2.29,1.45c-0.15-0.46-0.24-0.95-0.24-1.45c0-2.51,2.03-4.55,4.55-4.55
		C82.03,49.12,84.07,51.16,84.07,53.67z"/>
	<path class="st4" d="M105.53,57.19c0,1.08-0.88,1.95-1.95,1.95c-1.08,0-1.96-0.87-1.96-1.95c0-1.07,0.88-1.95,1.96-1.95
		C104.65,55.24,105.53,56.12,105.53,57.19z"/>
	<path class="st0" d="M108.85,46.04v3.6c0,0.98-0.79,1.78-1.78,1.78H93.19c-0.98,0-1.78-0.8-1.78-1.78v-3.6
		c0-0.98,0.8-1.78,1.78-1.78h13.88C108.06,44.26,108.85,45.06,108.85,46.04z"/>
	<path class="st5" d="M108.85,46.04v3.6c0,0.98-0.79,1.78-1.78,1.78H93.19c-0.98,0-1.78-0.8-1.78-1.78v-3.6
		c0-0.98,0.8-1.78,1.78-1.78h13.88C108.06,44.26,108.85,45.06,108.85,46.04z"/>
	<path class="st5" d="M84.07,53.67c0,2.52-2.04,4.56-4.55,4.56c-0.17,0-0.33-0.01-0.49-0.03c0.6-0.46,0.99-1.19,0.99-2
		c0-1.4-1.13-2.53-2.52-2.53c-1.01,0-1.88,0.6-2.29,1.45c-0.15-0.46-0.24-0.95-0.24-1.45c0-2.51,2.03-4.55,4.55-4.55
		C82.03,49.12,84.07,51.16,84.07,53.67z"/>
	<path class="st0" d="M156.86,39.25c0,0-1.34,8.38,5.13,3.9s7.08-7.19,5.55-5.81c-1.53,1.38-8.72,7.65-5.55,10.56
		c3.18,2.91,9.07-4.28,9.07-4.28s4.82-5.51,0-2.41s-5.13,8.92-3.75,10.22c1.38,1.3,7.23,1.09,10.83-7.09c0,0,1.15-3.74-2.72-0.03
		c-3.86,3.71-5.47,9.22-3.67,10.94s5.93,1.53,10.48-6.2c0,0,2.83-6.58-5.59,1.38"/>
	<path class="st1" d="M184.91,52.83c0,0-0.39,2.37-3.52,4.66l-23.83-17.8c-0.5,0.36-0.97,0.65-1.37,0.88
		c-0.74,0.41-1.65,0.35-2.31-0.17c-0.66-0.51-1.5-1.09-1.97-1.07c-0.86,0.03-2.07,0.4-3.1-0.55c-0.54-0.49-0.32-1.47,0.01-2.29
		c0.35-0.87,0.08-1.87-0.65-2.45l-28.68-22.44c-0.9-0.71-1.08-2.01-0.39-2.94l1.42-1.87c0.69-0.91,1.98-1.11,2.9-0.46l29.71,20.96
		c0.79,0.55,1.84,0.5,2.57-0.11c1.61-1.34,2.62-0.98,2.62-0.98c0.96,0.16,1.16,1.94,1.19,3.06c0.01,0.61,0.31,1.18,0.79,1.56
		l0.91,0.74c0.71,0.58,0.95,1.53,0.65,2.38c-0.08,0.24-0.18,0.46-0.27,0.69L184.91,52.83z"/>
	<path class="st7" d="M161.99,64.21h13.87c0,0-1.31-5.31,2.36-9.08"/>
	<path d="M187.67,69.62h-54.93c-1.45,0-2.63-1.18-2.63-2.63v-0.98c0-1.45,1.18-2.63,2.63-2.63h54.93c1.45,0,2.63,1.18,2.63,2.63
		v0.98C190.3,68.44,189.12,69.62,187.67,69.62z"/>
	<path class="st7" d="M74.69,58.35c0,0-29.99,23.33,10.37,22.3c40.36-1.03-2.79-4.36-2.79-4.36S61.37,74.9,58.62,64.23
		s31.15-76.82,62.55-55.32"/>
</g>
</svg>
