<?xml version="1.0" encoding="utf-8"?>
<!-- Generator: Adobe Illustrator 24.1.2, SVG Export Plug-In . SVG Version: 6.00 Build 0)  -->
<svg version="1.1" id="Layer_1" xmlns="http://www.w3.org/2000/svg" xmlns:xlink="http://www.w3.org/1999/xlink" x="0px" y="0px"
	 viewBox="0 0 33.9 33.9" style="enable-background:new 0 0 33.9 33.9;" xml:space="preserve">
<style type="text/css">
	.fan-st0{fill:none;stroke:#000000;stroke-miterlimit:10;}
	.fan-st1{fill:#FFFFFF;stroke:#000000;stroke-miterlimit:10;}
</style>
<g>
	<path class="fan-st0" d="M13.47,0.5h4.56c0.71,0,1.29,0.58,1.29,0.75v13.88c0,1.24-0.58,1.82-1.29,1.82h-0.14
		c-0.56,0-1.06-0.36-1.22-0.9L12.25,2.17C11.99,1.35,12.6,0.5,13.47,0.5z"/>
	<path class="fan-st0" d="M0.5,20.42v-4.56c0-0.71,0.58-1.29,0.75-1.29h13.88c1.24,0,1.82,0.58,1.82,1.29v0.14
		c0,0.56-0.36,1.06-0.9,1.22L2.17,21.65C1.35,21.91,0.5,21.29,0.5,20.42z"/>
	<path class="fan-st0" d="M20.42,33.4h-4.56c-0.71,0-1.29-0.58-1.29-0.75V18.76c0-1.24,0.58-1.82,1.29-1.82h0.14
		c0.56,0,1.06,0.36,1.22,0.9l4.41,13.88C21.91,32.55,21.29,33.4,20.42,33.4z"/>
	<path class="fan-st0" d="M33.4,13.47v4.56c0,0.71-0.58,1.29-0.75,1.29H18.76c-1.24,0-1.82-0.58-1.82-1.29v-0.14
		c0-0.56,0.36-1.06,0.9-1.22l13.88-4.41C32.55,11.99,33.4,12.6,33.4,13.47z"/>
	<path class="fan-st0" d="M2.86,7.77l3.22-3.22c0.5-0.5,1.32-0.5,1.44-0.38l9.81,9.81c0.88,0.88,0.88,1.69,0.38,2.19l-0.1,0.1
		c-0.4,0.4-1,0.49-1.5,0.23L3.18,9.82C2.41,9.42,2.25,8.39,2.86,7.77z"/>
	<path class="fan-st0" d="M7.77,31.03l-3.22-3.22c-0.5-0.5-0.5-1.32-0.38-1.44l9.81-9.81c0.88-0.88,1.69-0.88,2.19-0.38l0.1,0.1
		c0.4,0.4,0.49,1,0.23,1.5L9.82,30.72C9.42,31.49,8.39,31.65,7.77,31.03z"/>
	<path class="fan-st0" d="M31.03,26.12l-3.22,3.22c-0.5,0.5-1.32,0.5-1.44,0.38l-9.81-9.81c-0.88-0.88-0.88-1.69-0.38-2.19l0.1-0.1
		c0.4-0.4,1-0.49,1.5-0.23l12.93,6.69C31.49,24.47,31.65,25.51,31.03,26.12z"/>
	<path class="fan-st0" d="M26.12,2.86l3.22,3.22c0.5,0.5,0.5,1.32,0.38,1.44l-9.81,9.81c-0.88,0.88-1.69,0.88-2.19,0.38l-0.1-0.1
		c-0.4-0.4-0.49-1-0.23-1.5l6.69-12.93C24.47,2.41,25.51,2.25,26.12,2.86z"/>
	<circle class="fan-st1" cx="16.95" cy="16.95" r="6.42"/>
</g>
<g>
</g>
<g>
</g>
<g>
</g>
<g>
</g>
<g>
</g>
<g>
</g>
</svg>
