<?xml version="1.0" encoding="utf-8"?>
<svg version="1.1" id="Layer_1" xmlns="http://www.w3.org/2000/svg" xmlns:xlink="http://www.w3.org/1999/xlink" x="0px" y="0px"
	 viewBox="0 0 188.509 225.33" style="enable-background:new 0 0 188.509 225.33;" xml:space="preserve">
<style type="text/css">
	.g3-st0{fill:#FFFFFF;stroke:#2a2a2a;stroke-width:2;stroke-miterlimit:10;}
</style>
<g>
	<circle cx="94.255" cy="112.665" r="94.255"/>
	<g>
		<path class="g3-st0" d="M100.492,210.79v-97.1l-40.55-40.55V21.39c2.13-1.24,3.56-3.55,3.56-6.2c0-3.97-3.22-7.2-7.2-7.2
			c-3.97,0-7.2,3.23-7.2,7.2c0,2.83,1.64,5.28,4.02,6.45v54.31l40.55,40.55v94.3c-2.25,1.21-3.78,3.6-3.78,6.33
			c0,3.98,3.22,7.2,7.2,7.2c3.97,0,7.2-3.22,7.2-7.2C104.292,214.39,102.752,212,100.492,210.79z M56.302,18.97
			c-1.39,0-2.6-0.8-3.18-1.97c-0.24-0.48-0.38-1.02-0.38-1.6c0-1.97,1.59-3.56,3.56-3.56c1.9,0,3.46,1.48,3.56,3.35
			c0.01,0.07,0.01,0.14,0.01,0.21C59.872,17.37,58.272,18.97,56.302,18.97z"/>
		<path class="g3-st0" d="M120.772,207.37v-97.34l-40.55-40.54V17.87c2.25-1.21,3.78-3.6,3.78-6.33c0-3.98-3.22-7.2-7.2-7.2
			c-3.97,0-7.2,3.22-7.2,7.2c0,2.74,1.54,5.13,3.8,6.34V72.3l6.82,6.82l33.73,33.72v94.71c-2.17,1.24-3.62,3.57-3.62,6.24
			c0,3.98,3.22,7.2,7.2,7.2c3.97,0,7.2-3.22,7.2-7.2C124.732,210.98,123.122,208.55,120.772,207.37z M76.802,15.1
			c-1.59,0-2.95-1.05-3.4-2.5c-0.1-0.33-0.16-0.69-0.16-1.06c0-1.97,1.6-3.57,3.56-3.57c1.97,0,3.57,1.6,3.57,3.57
			c0,0.36-0.05,0.7-0.15,1.02C79.782,14.03,78.422,15.1,76.802,15.1z M117.532,217.45c-1.97,0-3.57-1.6-3.57-3.57
			c0-0.03,0-0.06,0.01-0.09c0.04-1.92,1.62-3.47,3.56-3.47c1.45,0,2.69,0.86,3.24,2.1c0.21,0.44,0.32,0.94,0.32,1.46
			C121.092,215.85,119.502,217.45,117.532,217.45z"/>
		<path class="g3-st0" d="M140.002,204.08V106.7l-40.55-40.55V14.49c2.21-1.23,3.7-3.58,3.7-6.29c0-3.97-3.23-7.2-7.2-7.2
			c-3.98,0-7.2,3.23-7.2,7.2c0,2.78,1.57,5.19,3.88,6.38v54.38l40.55,40.55v94.66c-2.21,1.23-3.7,3.58-3.7,6.29
			c0,3.98,3.22,7.2,7.2,7.2c3.97,0,7.2-3.22,7.2-7.2C143.882,207.68,142.302,205.27,140.002,204.08z M95.952,11.54
			c-1.51,0-2.8-0.94-3.32-2.26c-0.16-0.41-0.25-0.85-0.25-1.31c0-1.97,1.6-3.57,3.57-3.57c1.97,0,3.56,1.6,3.56,3.57
			c0,0.22-0.02,0.44-0.06,0.65C99.152,10.28,97.702,11.54,95.952,11.54z M136.682,214.03c-1.97,0-3.57-1.6-3.57-3.57
			c0-0.25,0.03-0.49,0.07-0.72c0.34-1.63,1.78-2.85,3.5-2.85c1.52,0,2.81,0.95,3.32,2.29c0.16,0.39,0.24,0.83,0.24,1.28
			C140.242,212.43,138.652,214.03,136.682,214.03z"/>
		<path class="g3-st0" d="M121.092,213.88c0,1.97-1.59,3.57-3.56,3.57c-1.97,0-3.57-1.6-3.57-3.57c0-0.03,0-0.06,0.01-0.09
			c0.04-1.92,1.62-3.47,3.56-3.47c1.45,0,2.69,0.86,3.24,2.1C120.982,212.86,121.092,213.36,121.092,213.88z"/>
		<path class="g3-st0" d="M100.732,217.445c0,1.97-1.59,3.57-3.56,3.57c-1.97,0-3.57-1.6-3.57-3.57c0-0.03,0-0.06,0.01-0.09
			c0.04-1.92,1.62-3.47,3.56-3.47c1.45,0,2.69,0.86,3.24,2.1C100.622,216.425,100.732,216.925,100.732,217.445z"/>
		<path class="g3-st0" d="M59.872,15.4c0,1.97-1.59,3.57-3.56,3.57c-1.97,0-3.57-1.6-3.57-3.57c0-0.03,0-0.06,0.01-0.09
			c0.04-1.92,1.62-3.47,3.56-3.47c1.45,0,2.69,0.86,3.24,2.1C59.762,14.38,59.872,14.88,59.872,15.4z"/>
		<path class="g3-st0" d="M99.512,7.985c0,1.97-1.59,3.57-3.56,3.57c-1.97,0-3.57-1.6-3.57-3.57c0-0.03,0-0.06,0.01-0.09
			c0.04-1.92,1.62-3.47,3.56-3.47c1.45,0,2.69,0.86,3.24,2.1C99.402,6.965,99.512,7.465,99.512,7.985z"/>
	</g>
</g>
</svg>
