<?xml version="1.0" encoding="utf-8"?>
<svg version="1.1" id="Layer_1" xmlns="http://www.w3.org/2000/svg" xmlns:xlink="http://www.w3.org/1999/xlink" x="0px" y="0px"
	 viewBox="0 0 188.509 188.509" style="enable-background:new 0 0 188.509 188.509;" xml:space="preserve">
<style type="text/css">
	.g1-st0{fill:#FFFFFF;stroke:#2a2a2a;stroke-width:3;stroke-miterlimit:10;}
	.g1-st1{fill:#FEFEFF;stroke:#2a2a2a;stroke-miterlimit:10;}
	.g1-st2{fill:#FFFFFF;}
</style>
<g>
	<circle cx="94.255" cy="94.255" r="94.255"/>
	<rect x="62.201" y="18.05" class="g1-st0" width="116.875" height="78.632"/>
	<path class="g1-st1" d="M138.506,120.148l-25.91,24.41l-34.11-10.24l33.54-31.59c4.28,1.7,8.95,2.64,13.84,2.64
		c3.07,0,6.05-0.37,8.9-1.06L138.506,120.148z"/>
	
		<ellipse transform="matrix(0.9516 -0.3072 0.3072 0.9516 -35.4367 21.3512)" class="g1-st0" cx="50.103" cy="123.238" rx="23.2" ry="12.307"/>
	<g>
		<polygon points="101.061,46.732 116.98,31.208 126.847,35.549 126.847,66.335 117.506,70.808 101.061,54.889 91.72,62.257 
			87.773,60.546 97.114,51.008 87.773,41.075 91.72,39.759 		"/>
		<polygon points="135.793,20.852 135.793,81.07 82.836,73.439 135.793,91.348 153.567,83.833 153.567,28.182 		"/>
		<polygon class="g1-st2" points="106.586,51.008 117.243,42.522 117.243,59.231 		"/>
	</g>
</g>
</svg>
