<?xml version="1.0" encoding="utf-8"?>
<!-- Generator: Adobe Illustrator 24.1.2, SVG Export Plug-In . SVG Version: 6.00 Build 0)  -->
<svg version="1.1" id="Layer_1" xmlns="http://www.w3.org/2000/svg" xmlns:xlink="http://www.w3.org/1999/xlink" x="0px" y="0px"
	 viewBox="0 0 210.78 169.31" style="enable-background:new 0 0 210.78 169.31;" xml:space="preserve">
<style type="text/css">
	.st0{fill:#1E1E1C;stroke:#FFFFFF;stroke-miterlimit:10;}
	.st1{fill:#FFFFFF;stroke:#FFFFFF;stroke-width:0.25;stroke-miterlimit:10;}
	.st2{fill:#1E1E1C;stroke:#000000;stroke-width:0.25;stroke-miterlimit:10;}
</style>
<g>
	<path class="st0" d="M204.06,0.5H6.72C3.28,0.5,0.5,3.28,0.5,6.72V139.1c0,3.43,2.78,6.22,6.22,6.22h197.34
		c3.44,0,6.22-2.79,6.22-6.22V6.72C210.28,3.28,207.5,0.5,204.06,0.5z M9.5,9.34h191.78v107.67H9.5V9.34z"/>
	<rect x="9.5" y="9.34" class="st1" width="191.78" height="107.67"/>
	<path class="st2" d="M84.45,145.32l-1.96,18.82c0,0,0.16,2.13-3.44,2.29c-3.6,0.16-5.56,1.6-5.56,1.6s-0.78,1.1,2.29,1.15
		c3.07,0.04,60.18,0,60.18,0s1.6-0.16,1.27-1.02c-0.33-0.86-7.69-2.21-7.69-2.21s-1.43,0.16-1.84-4.13s-1.64-16.49-1.64-16.49"/>
</g>
<g>
</g>
<g>
</g>
<g>
</g>
<g>
</g>
<g>
</g>
<g>
</g>
</svg>
