<?xml version="1.0" encoding="utf-8"?>
<svg version="1.1" id="Layer_1" xmlns="http://www.w3.org/2000/svg" xmlns:xlink="http://www.w3.org/1999/xlink" x="0px" y="0px"
	 viewBox="0 0 220.1 220.1" style="enable-background:new 0 0 220.1 220.1;" xml:space="preserve">
<style type="text/css">
	.pc-st0{stroke:#000000;stroke-miterlimit:10;}
	.pc-st1{fill:none;stroke:#000000;stroke-miterlimit:10;}
	.pc-st2{fill:#FFFFFF;stroke:#000000;stroke-miterlimit:10;}
	.pc-st3{fill:none;stroke:#000000;stroke-width:4;stroke-miterlimit:10;}
</style>
<g>
	<polygon class="pc-st0" points="40.19,30.3 40.19,84.88 27.07,98.4 27.07,30.3 	"/>

	<path class="pc-st0" d="M16.8,18.17V207c0,1.81,1.47,3.28,3.28,3.28h2.94c1.81,0,3.28-1.47,3.28-3.28v-7.2c0-1.81,1.47-3.28,3.28-3.28
		h159.22c1.81,0,3.28,1.47,3.28,3.28v7.2c0,1.81,1.47,3.28,3.28,3.28h2.94c1.81,0,3.28-1.47,3.28-3.28V18.17
		c0-1.81-1.47-3.28-3.28-3.28H20.07C18.26,14.89,16.8,16.36,16.8,18.17z M177.33,178.18H30.34c-1.81,0-3.28-1.47-3.28-3.28V33.58
		c0-1.81,1.47-3.28,3.28-3.28h146.99c1.81,0,3.28,1.47,3.28,3.28V174.9C180.61,176.71,179.14,178.18,177.33,178.18z"/>
	<rect x="27.07" y="30.3" class="pc-st1" width="153.54" height="147.88"/>
	<rect x="27.07" y="30.3" class="pc-st1" width="153.54" height="147.88"/>
	<path class="pc-st0" d="M155.81,104.24H31.74c-2.11,0-3.83,1.72-3.83,3.83v37.84c0,2.11,1.72,3.83,3.83,3.83h124.07
		c2.11,0,3.83-1.72,3.83-3.83v-37.84C159.64,105.96,157.93,104.24,155.81,104.24z M51.33,145.49c-10.22,0-18.51-8.28-18.51-18.5
		c0-10.22,8.29-18.5,18.51-18.5c10.21,0,18.5,8.28,18.5,18.5C69.83,137.21,61.54,145.49,51.33,145.49z M93.3,145.49
		c-10.22,0-18.51-8.28-18.51-18.5c0-10.22,8.29-18.5,18.51-18.5c10.22,0,18.5,8.28,18.5,18.5
		C111.8,137.21,103.52,145.49,93.3,145.49z M135.24,145.49c-10.22,0-18.5-8.28-18.5-18.5c0-10.22,8.28-18.5,18.5-18.5
		c10.22,0,18.51,8.28,18.51,18.5C153.75,137.21,145.46,145.49,135.24,145.49z"/>
	<polyline class="pc-st1" points="102.38,155.78 180.61,155.78 27.07,155.78 	"/>
	<path class="pc-st0" d="M92.4,39.93H51c-1.9,0-3.44-1.54-3.44-3.44v-2.76c0-1.9,1.54-3.44,3.44-3.44h41.4c1.9,0,3.44,1.54,3.44,3.44
		v2.76C95.84,38.39,94.3,39.93,92.4,39.93z"/>
	<path class="pc-st0" d="M142.7,39.93h-41.45c-1.88,0-3.41-1.53-3.41-3.41v-2.81c0-1.88,1.53-3.41,3.41-3.41h41.45
		c1.88,0,3.41,1.53,3.41,3.41v2.81C146.11,38.4,144.58,39.93,142.7,39.93z"/>
	<path class="pc-st0" d="M170.98,79.35V37.87c0-1.87,1.52-3.39,3.39-3.39h2.84c1.87,0,3.39,1.52,3.39,3.39v41.49
		c0,1.87-1.52,3.39-3.39,3.39h-2.84C172.5,82.75,170.98,81.23,170.98,79.35z"/>
	<path class="pc-st0" d="M170.98,130.79V89.31c0-1.87,1.52-3.39,3.39-3.39h2.84c1.87,0,3.39,1.52,3.39,3.39v41.49
		c0,1.87-1.52,3.39-3.39,3.39h-2.84C172.5,134.18,170.98,132.66,170.98,130.79z"/>
	<path class="pc-st1" d="M94.69,83.68H77.95c-1.75,0-3.17-1.42-3.17-3.17V63.78c0-1.75,1.42-3.17,3.17-3.17h16.73
		c1.75,0,3.17,1.42,3.17,3.17v5.39v11.35C97.86,82.27,96.44,83.68,94.69,83.68z"/>




	<path class="pc-st2" d="M23.1,77.23V35.69c0-1.86,1.51-3.37,3.37-3.37h2.89c1.86,0,3.37,1.51,3.37,3.37v41.54
		c0,1.86-1.51,3.37-3.37,3.37h-2.89C24.61,80.59,23.1,79.09,23.1,77.23z"/>
	<line class="pc-st1" x1="125.31" y1="39.93" x2="125.31" y2="104.24"/>
	<path class="pc-st3" d="M43.53,30.3c0,0-7.85,73.23,33.38,70.5c0,0,26.18-1.2,23.24-29.78"/>
	<path class="pc-st3" d="M43.27,30.3c0,0-4.24,49.01,24.15,63.74c0,0,34.11,12.32,33.3-17.56"/>
	<path class="pc-st2" d="M102.14,76.04H99.3c-0.8,0-1.45-0.65-1.45-1.45v-3.98c0-0.8,0.65-1.45,1.45-1.45h2.83
		c0.8,0,1.45,0.65,1.45,1.45v3.98C103.58,75.39,102.94,76.04,102.14,76.04z"/>
	<path class="pc-st0" d="M92.04,80.49H80.6c-1.2,0-2.17-0.97-2.17-2.17V66.88c0-1.2,0.97-2.17,2.17-2.17h11.44
		c1.2,0,2.17,0.97,2.17,2.17v3.68v7.76C94.21,79.52,93.24,80.49,92.04,80.49z"/>
</g>
<g>
</g>
<g>
</g>
<g>
</g>
<g>
</g>
<g>
</g>
<g>
</g>
</svg>
